<?xml version="1.0" encoding="utf-8"?>
<!-- Generator: Adobe Illustrator 24.0.1, SVG Export Plug-In . SVG Version: 6.00 Build 0)  -->
<svg version="1.1" id="Capa_1" xmlns="http://www.w3.org/2000/svg" xmlns:xlink="http://www.w3.org/1999/xlink" x="0px" y="0px"
	 viewBox="0 0 900 488.5" style="enable-background:new 0 0 900 488.5;" xml:space="preserve">
<style type="text/css">
	.st0{opacity:0.88;fill:#E5DEDA;}
	.st1{opacity:0.64;}
	.st2{fill:none;stroke:#DDDDDD;stroke-width:0.75;stroke-miterlimit:10;}
	.st3{fill:none;stroke:#DDDDDD;stroke-width:0.75;stroke-miterlimit:10;stroke-dasharray:3.9911,3.9911;}
	.st4{opacity:0.65;}
	.st5{font-family:'ArialMT';}
	.st6{font-size:13px;}
	.st7{fill:none;stroke:#888888;stroke-miterlimit:10;}
	.st8{font-family:'Arial-BoldMT';}
	.st9{fill:none;stroke:#E45756;stroke-width:2;stroke-miterlimit:10;}
	.st10{fill:none;stroke:#54A24B;stroke-width:2;stroke-miterlimit:10;}
	.st11{fill:none;stroke:#F58518;stroke-width:2;stroke-miterlimit:10;}
	.st12{fill:none;stroke:#66C5C7;stroke-width:2;stroke-miterlimit:10;}
	.st13{fill:none;stroke:#4C78A8;stroke-width:2;stroke-miterlimit:10;}
	.st14{fill:none;stroke:#000000;stroke-width:0.75;stroke-miterlimit:10;}
	.st15{fill:none;}
	.st16{font-size:11px;}
</style>
<rect x="573.3" y="99.3" class="st0" width="58.8" height="303.3"/>
<g class="st1">
	<g>
		<line class="st2" x1="59.9" y1="254.8" x2="61.9" y2="254.8"/>
		<line class="st3" x1="65.9" y1="254.8" x2="870.1" y2="254.8"/>
		<line class="st2" x1="872.1" y1="254.8" x2="874.1" y2="254.8"/>
	</g>
</g>
<g class="st4">
	<g>
		<line class="st2" x1="59.9" y1="107" x2="61.9" y2="107"/>
		<line class="st3" x1="65.9" y1="107" x2="870.1" y2="107"/>
		<line class="st2" x1="872.1" y1="107" x2="874.1" y2="107"/>
	</g>
</g>
<text transform="matrix(-1.836970e-16 -1.0167 1 -1.867734e-16 73.0112 438.5977)" class="st5 st6">1969</text>
<text transform="matrix(-1.836970e-16 -1.0167 1 -1.867734e-16 92.3965 438.5977)" class="st5 st6">1975</text>
<text transform="matrix(-1.836970e-16 -1.0167 1 -1.867734e-16 111.7822 438.5977)" class="st5 st6">1977</text>
<text transform="matrix(-1.836970e-16 -1.0167 1 -1.867734e-16 131.168 438.5977)" class="st5 st6">1979</text>
<text transform="matrix(-1.836970e-16 -1.0167 1 -1.867734e-16 150.5537 438.5977)" class="st5 st6">1980</text>
<text transform="matrix(-1.836970e-16 -1.0167 1 -1.867734e-16 169.9395 438.5977)" class="st5 st6">1981</text>
<text transform="matrix(-1.836970e-16 -1.0167 1 -1.867734e-16 189.3252 438.5977)" class="st5 st6">1982</text>
<text transform="matrix(-1.836970e-16 -1.0167 1 -1.867734e-16 208.7109 438.5977)" class="st5 st6">1983</text>
<text transform="matrix(-1.836970e-16 -1.0167 1 -1.867734e-16 228.0967 438.5977)" class="st5 st6">1984</text>
<text transform="matrix(-1.836970e-16 -1.0167 1 -1.867734e-16 247.4824 438.5977)" class="st5 st6">1985</text>
<text transform="matrix(-1.836970e-16 -1.0167 1 -1.867734e-16 266.8682 438.5977)" class="st5 st6">1986</text>
<text transform="matrix(-1.836970e-16 -1.0167 1 -1.867734e-16 286.2539 438.5977)" class="st5 st6">1987</text>
<text transform="matrix(-1.836970e-16 -1.0167 1 -1.867734e-16 305.6396 438.5977)" class="st5 st6">1988</text>
<text transform="matrix(-1.836970e-16 -1.0167 1 -1.867734e-16 325.0254 438.5977)" class="st5 st6">1989</text>
<text transform="matrix(-1.836970e-16 -1.0167 1 -1.867734e-16 344.4111 438.5977)" class="st5 st6">1990</text>
<text transform="matrix(-1.836970e-16 -1.0167 1 -1.867734e-16 363.7969 438.5977)" class="st5 st6">1991</text>
<text transform="matrix(-1.836970e-16 -1.0167 1 -1.867734e-16 383.1826 438.5977)" class="st5 st6">1992</text>
<text transform="matrix(-1.836970e-16 -1.0167 1 -1.867734e-16 402.5684 438.5977)" class="st5 st6">1993</text>
<text transform="matrix(-1.836970e-16 -1.0167 1 -1.867734e-16 421.9541 438.5977)" class="st5 st6">1994</text>
<text transform="matrix(-1.836970e-16 -1.0167 1 -1.867734e-16 441.3403 438.5977)" class="st5 st6">1995</text>
<text transform="matrix(-1.836970e-16 -1.0167 1 -1.867734e-16 460.7256 438.5977)" class="st5 st6">1996</text>
<text transform="matrix(-1.836970e-16 -1.0167 1 -1.867734e-16 480.1113 438.5977)" class="st5 st6">1997</text>
<text transform="matrix(-1.836970e-16 -1.0167 1 -1.867734e-16 499.4971 438.5977)" class="st5 st6">1998</text>
<text transform="matrix(-1.836970e-16 -1.0167 1 -1.867734e-16 518.8828 438.5977)" class="st5 st6">1999</text>
<text transform="matrix(-1.836970e-16 -1.0167 1 -1.867734e-16 538.269 438.5977)" class="st5 st6">2000</text>
<text transform="matrix(-1.836970e-16 -1.0167 1 -1.867734e-16 557.6543 438.5977)" class="st5 st6">2001</text>
<text transform="matrix(-1.836970e-16 -1.0167 1 -1.867734e-16 577.0405 438.5977)" class="st5 st6">2002</text>
<text transform="matrix(-1.836970e-16 -1.0167 1 -1.867734e-16 596.4258 438.5977)" class="st5 st6">2003</text>
<text transform="matrix(-1.836970e-16 -1.0167 1 -1.867734e-16 615.812 438.5977)" class="st5 st6">2004</text>
<text transform="matrix(-1.836970e-16 -1.0167 1 -1.867734e-16 635.1973 438.5977)" class="st5 st6">2005</text>
<text transform="matrix(-1.836970e-16 -1.0167 1 -1.867734e-16 654.5835 438.5977)" class="st5 st6">2006</text>
<text transform="matrix(-1.836970e-16 -1.0167 1 -1.867734e-16 673.9688 438.5977)" class="st5 st6">2007</text>
<text transform="matrix(-1.836970e-16 -1.0167 1 -1.867734e-16 693.355 438.5977)" class="st5 st6">2008</text>
<text transform="matrix(-1.836970e-16 -1.0167 1 -1.867734e-16 712.7402 438.5977)" class="st5 st6">2009</text>
<text transform="matrix(-1.836970e-16 -1.0167 1 -1.867734e-16 732.1265 438.5977)" class="st5 st6">2010</text>
<text transform="matrix(-1.836970e-16 -1.0167 1 -1.867734e-16 751.5117 437.6162)" class="st5 st6">2011</text>
<text transform="matrix(-1.836970e-16 -1.0167 1 -1.867734e-16 770.8979 438.5977)" class="st5 st6">2012</text>
<text transform="matrix(-1.836970e-16 -1.0167 1 -1.867734e-16 790.2832 438.5977)" class="st5 st6">2013</text>
<text transform="matrix(-1.836970e-16 -1.0167 1 -1.867734e-16 809.6694 438.5977)" class="st5 st6">2014</text>
<text transform="matrix(-1.836970e-16 -1.0167 1 -1.867734e-16 829.0547 438.5977)" class="st5 st6">2015</text>
<text transform="matrix(-1.836970e-16 -1.0167 1 -1.867734e-16 848.4409 438.5977)" class="st5 st6">2016</text>
<text transform="matrix(-1.836970e-16 -1.0167 1 -1.867734e-16 867.8262 438.5977)" class="st5 st6">2017</text>
<line class="st7" x1="59.9" y1="402.6" x2="874.1" y2="402.6"/>
<text transform="matrix(0.9835 0 0 1 452.4565 462.2075)" class="st8 st6">Year</text>
<text transform="matrix(0.9835 0 0 1 47.2266 406.5298)" class="st5 st6">0</text>
<text transform="matrix(0.9835 0 0 1 40.1157 356.7646)" class="st5 st6">20</text>
<text transform="matrix(0.9835 0 0 1 40.1157 307.4883)" class="st5 st6">40</text>
<text transform="matrix(0.9835 0 0 1 40.1157 258.2119)" class="st5 st6">60</text>
<text transform="matrix(0.9835 0 0 1 40.1157 208.9365)" class="st5 st6">80</text>
<text transform="matrix(0.9835 0 0 1 31.8125 159.6602)" class="st5 st6">100</text>
<text transform="matrix(0.9835 0 0 1 31.8125 110.3843)" class="st5 st6">120</text>
<line class="st7" x1="59.9" y1="402.6" x2="59.9" y2="107"/>
<text transform="matrix(6.123235e-17 -1.0167 1 6.225781e-17 25.0781 337.7295)" class="st8 st6">Number of missing people</text>
<path class="st9" d="M69.1,394.7l19.4,4.9h19.4l19.4-4.9l19.4,4.9l19.4-4.9h19.4l19.4,4.9l19.4-7.4l19.4-9.9l19.4,9.9l19.4-9.9
	l19.4,2.5l58.2-2.5l19.4,9.9l19.4-9.9l19.1,14.9l19.4-2.5l19.4-12.3l19.4-37h19.4l19.4-4.9l19.4-7.4l19.4,14.8l19.4-39.4l19.4,37
	H612l19.4,7.4l19.4,27.1l19.4-24.6l19.4,17.2l19.4-12.3l19.4,22.2l19.4,7.4l19.4,4.9l19.4,4.9l19.4-9.9l19.4,9.9h19.4l19.4-2.5"/>
<path class="st10" d="M107.8,399.7l58.2-9.9l19.4,4.9l19.4-2.5l19.4,7.4l19.4-14.8l19.4,9.9l19.4-19.7h19.4h19.4l19.4-22.2
	l19.4,27.1h19.4l19.4,17.2l19.4-14.8l19.4-2.5l19.4-4.9l19.4-14.8l19.4,17.2l19.4-49.3l19.4,17.2l19.4-59.1l19.4-170l19.4,138
	l19.4-110.9l19.4,64.1l19.4,71.5l19.4,69l19.4,9.9l19.4,9.9l19.4,19.7l38.8,9.9l19.4,2.5H845"/>
<path class="st11" d="M127.2,399.7h19.4l19.4-9.9l96.9,7.4h19.4l38.8-7.4l19.4,9.9l19.4-12.3l19.4-9.9l19.4,9.9l19.4,2.5l19.4-7.4
	h19.4h19.4l19.4,2.5l19.4-14.8l19.4,4.9l19.4,12.3l19.4-22.2l19.4-2.5l19.4-4.9l19.4,7.4l19.4,34.5l19.4-7.4l19.4-2.5l19.4,4.9
	l38.8,4.9h19.4"/>
<path class="st12" d="M166,389.8l96.9,9.9h19.4l58.2-39.4l19.4,37l19.4-41.9l19.4,34.5l19.3,7.3l19.4-14.8l19.4,12.3h19.4l19.4-4.9
	l19.4,2.5l19.4,2.5l19.4-17.2h19.4l19.4,4.9l19.4,7.4l19.4-12.3h19.4l19.2,19.6l19.4-4.9l19.4,7.4l19.4-2.5l19.4-2.5H767"/>
<path class="st13" d="M243.5,399.7l19.4-2.5l19.4-12.3l19.4,7.4h19.4h19.4l19.4-7.4l19.4,14.8l19.4-2.5l19.4,2.5h19.4l19.4-4.9h19.4
	l19.4,4.9l19.4-27.1l19.4,17.2l19.4-2.5l19.4-4.9l19.4-19.7l19.4,22.2l19.4-12.3l19.4,14.8l19.4,2.5l19.4,4.9l19.4,2.5l38.8-4.9
	h19.4"/>
<g>
	<g>
		<path class="st13" d="M30.5,57.9h10"/>
		<text transform="matrix(1 0 0 1 45.504 61.3768)" class="st5 st6">La Macarena</text>
	</g>
	<g>
		<path class="st11" d="M137.1,57.9h10"/>
		<text transform="matrix(1 0 0 1 152.1008 61.3763)" class="st5 st6">Mesetas</text>
	</g>
	<g>
		<path class="st9" d="M217,57.9h10"/>
		<text transform="matrix(1 0 0 1 231.9488 61.3763)" class="st5 st6">San Vicente del Caguán</text>
	</g>
	<g>
		<path class="st12" d="M387.7,57.9h10"/>
		<text transform="matrix(1 0 0 1 402.6448 61.3761)" class="st5 st6">Uribe</text>
	</g>
	<g>
		<path class="st10" d="M449.5,57.9h10"/>
		<text transform="matrix(1 0 0 1 464.4274 61.3763)" class="st5 st6">Vistahermosa</text>
	</g>
	<text transform="matrix(1 0 0 1 30.5373 36.1196)" class="st8 st6">Counties:</text>
</g>
<g>
	<g>
		<path class="st14" d="M611.9,99.8c3.9-18.2,19.7-22.4,31-18"/>
		<g>
			<polygon points="647.6,84.2 639.6,83.6 642.6,81.7 642.4,78.1 			"/>
		</g>
	</g>
</g>
<rect x="652.1" y="82.5" class="st15" width="164.7" height="66.9"/>
<text transform="matrix(1 0 0 1 652.1116 90.3643)"><tspan x="0" y="0" class="st5 st16">During the next three years after </tspan><tspan x="0" y="13.2" class="st5 st16">Colombian Army retook the zone, </tspan><tspan x="0" y="26.4" class="st5 st16">the number of missing people </tspan><tspan x="0" y="39.6" class="st5 st16">increased in a high way, specially </tspan><tspan x="0" y="52.8" class="st5 st16">in the county of Vistahermosa.</tspan></text>
</svg>
